<svg width="200" height="601" viewBox="0 0 200 601" fill="none" xmlns="http://www.w3.org/2000/svg">
<path fill-rule="evenodd" clip-rule="evenodd" d="M174.789 75.7704L26.2176 114.742L21.2945 102.654L174.789 63.23L174.789 75.7704Z" fill="#2F201D"/>
<path fill-rule="evenodd" clip-rule="evenodd" d="M174.789 146.697L26.2176 185.668L21.2945 173.581L174.789 134.156L174.789 146.697Z" fill="#2F201D"/>
<path fill-rule="evenodd" clip-rule="evenodd" d="M174.789 217.623L26.2176 256.594L21.2945 244.507L174.789 205.083L174.789 217.623Z" fill="#2F201D"/>
<path fill-rule="evenodd" clip-rule="evenodd" d="M175.063 147L20.8235 115.656V102L175.063 133.19V147Z" fill="#828382"/>
<path fill-rule="evenodd" clip-rule="evenodd" d="M173.376 288.991L87.7276 325.314L83.5853 312.193L169.697 277.447L173.376 288.991Z" fill="#2F201D"/>
<path fill-rule="evenodd" clip-rule="evenodd" d="M175.063 218L20.8235 186.656V173L175.063 204.19V218Z" fill="#828382"/>
<path fill-rule="evenodd" clip-rule="evenodd" d="M175.063 289L20.8235 257.656V244L175.063 275.19V289Z" fill="#828382"/>
<path fill-rule="evenodd" clip-rule="evenodd" d="M175.063 75L82.9199 57.466L85.1352 44L175.063 62.2613V75Z" fill="#828382"/>
<path d="M82.9199 0H94.9385V59L82.9199 55.5479V0Z" fill="#828382"/>
<circle cx="100" cy="451" r="100" fill="#2F201D"/>
<path fill-rule="evenodd" clip-rule="evenodd" d="M70 320.256L100 301L130 320.256L114.939 320.256L114.939 451L85.0614 451L85.0614 320.256L70 320.256Z" fill="#3F518C"/>
<path fill-rule="evenodd" clip-rule="evenodd" d="M130 581.744L100 601L70 581.744L85.0614 581.744L85.0614 451L114.939 451L114.939 581.744L130 581.744Z" fill="#828382"/>
<circle cx="100" cy="451" r="15" fill="#2F201D"/>
</svg>
