<svg width="250" height="464" viewBox="0 0 250 464" fill="none" xmlns="http://www.w3.org/2000/svg">
<rect x="15" y="33" width="83" height="133" fill="#EC563B"/>
<rect x="151" y="33" width="83" height="133" fill="#EC563B"/>
<rect y="22" width="114" height="11" fill="#828382"/>
<rect x="136" y="22" width="114" height="11" fill="#828382"/>
<rect y="166" width="114" height="11" fill="#828382"/>
<rect x="136" y="166" width="114" height="11" fill="#828382"/>
<rect x="46" width="22" height="22" fill="#2F201D"/>
<rect x="182" width="22" height="22" fill="#2F201D"/>
<path d="M193 177C193 185.93 191.241 194.772 187.824 203.022C184.406 211.273 179.398 218.769 173.083 225.083C166.769 231.398 159.273 236.406 151.022 239.824C142.772 243.241 133.93 245 125 245C116.07 245 107.228 243.241 98.9775 239.824C90.7274 236.406 83.2311 231.398 76.9167 225.083C70.6024 218.769 65.5935 211.273 62.1762 203.022C58.7589 194.772 57 185.93 57 177" stroke="#2F201D" stroke-width="21"/>
<rect x="39" y="389" width="10" height="64" fill="#2F201D"/>
<rect x="11" y="415" width="26" height="12" fill="#2F201D"/>
<rect x="217" y="415" width="18" height="12" fill="#2F201D"/>
<rect x="197" y="389" width="18" height="10" fill="#2F201D"/>
<rect x="197" y="430" width="18" height="12" fill="#2F201D"/>
<rect x="197" y="414" width="18" height="14" fill="#2F201D"/>
<rect x="197" y="400" width="18" height="12" fill="#2F201D"/>
<rect x="197" y="443" width="18" height="10" fill="#2F201D"/>
<path fill-rule="evenodd" clip-rule="evenodd" d="M51.0616 399.971L160.199 379.539L51.0616 379.539L51.0616 463.539H58.6407L195.062 437.998V421.255L51.0616 448.214V442.539L195.062 415.579V398.836L51.0616 425.795V420.12L195.062 393.16L195.062 379.539L178.388 379.539L51.0616 403.376V399.971ZM195.062 441.403L76.8302 463.539L195.062 463.539L195.062 441.403Z" fill="#EC563B"/>
</svg>
