<svg width="913" height="687" viewBox="0 0 913 687" fill="none" xmlns="http://www.w3.org/2000/svg">
<path fill-rule="evenodd" clip-rule="evenodd" d="M771.191 24.2287L771.191 18.2562L777.113 18.2562L777.113 24.2287L771.191 24.2287ZM771.191 48.1188L771.191 36.1738L777.113 36.1738L777.113 48.1188L771.191 48.1188ZM771.191 72.0089L771.191 60.0639L777.113 60.0639L777.113 72.0089L771.191 72.0089ZM771.191 95.899L771.191 83.9539L777.113 83.9539L777.113 95.899L771.191 95.899ZM771.191 119.789L771.191 107.844L777.113 107.844L777.113 119.789L771.191 119.789ZM771.191 143.679L771.191 131.734L777.113 131.734L777.113 143.679L771.191 143.679ZM771.191 167.569L771.191 155.624L777.113 155.624L777.113 167.569L771.191 167.569ZM771.191 191.459L771.191 179.514L777.113 179.514L777.113 191.459L771.191 191.459ZM771.191 215.349L771.191 203.404L777.113 203.404L777.113 215.349L771.191 215.349ZM771.191 239.239L771.191 227.294L777.113 227.294L777.113 239.239L771.191 239.239ZM771.191 263.13L771.191 251.184L777.113 251.184L777.113 263.13L771.191 263.13ZM771.191 281.047L771.191 275.075L777.113 275.075L777.113 281.047L771.191 281.047Z" fill="#2F201D"/>
<path fill-rule="evenodd" clip-rule="evenodd" d="M122.082 25.2106L122.082 19.4399L128.004 19.4399L128.004 25.2106L122.082 25.2106ZM122.082 48.2936L122.082 36.7521L128.004 36.7521L128.004 48.2936L122.082 48.2936ZM122.082 71.3766L122.082 59.8351L128.004 59.8351L128.004 71.3766L122.082 71.3766ZM122.082 94.4595L122.082 82.9181L128.004 82.9181L128.004 94.4595L122.082 94.4595ZM122.082 111.772L122.082 106.001L128.004 106.001L128.004 111.772L122.082 111.772Z" fill="#2F201D"/>
<path fill-rule="evenodd" clip-rule="evenodd" d="M563.902 284.652L563.902 278.68L569.825 278.68L569.825 284.652L563.902 284.652ZM563.902 308.542L563.902 296.597L569.825 296.597L569.825 308.542L563.902 308.542ZM563.902 332.432L563.902 320.487L569.825 320.487L569.825 332.432L563.902 332.432ZM563.902 356.322L563.902 344.377L569.825 344.377L569.825 356.322L563.902 356.322ZM563.902 380.212L563.902 368.267L569.825 368.267L569.825 380.212L563.902 380.212ZM563.902 404.102L563.902 392.157L569.825 392.157L569.825 404.102L563.902 404.102ZM563.902 427.993L563.902 416.048L569.825 416.048L569.825 427.993L563.902 427.993ZM563.902 451.883L563.902 439.938L569.825 439.938L569.825 451.883L563.902 451.883ZM563.902 475.773L563.902 463.828L569.825 463.828L569.825 475.773L563.902 475.773ZM563.902 499.663L563.902 487.718L569.825 487.718L569.825 499.663L563.902 499.663ZM563.902 523.553L563.902 511.608L569.825 511.608L569.825 523.553L563.902 523.553ZM563.902 541.47L563.902 535.498L569.825 535.498L569.825 541.47L563.902 541.47Z" fill="#2F201D"/>
<path fill-rule="evenodd" clip-rule="evenodd" d="M134.816 70.0021C133.728 68.8407 133.728 66.9578 134.816 65.7964L152.553 46.871C153.642 45.7097 155.406 45.7097 156.495 46.871C157.583 48.0324 157.583 49.9153 156.495 51.0767L143.516 64.9254L370.862 64.9254L357.883 51.0767C356.794 49.9153 356.794 48.0324 357.883 46.871C358.971 45.7097 360.736 45.7097 361.824 46.871L379.561 65.7964C380.649 66.9578 380.649 68.8407 379.561 70.0021L361.824 88.9274C360.736 90.0888 358.971 90.0888 357.883 88.9274C356.794 87.7661 356.794 85.8832 357.883 84.7218L370.862 70.8731L143.516 70.8731L156.495 84.7218C157.583 85.8832 157.583 87.7661 156.495 88.9274C155.406 90.0888 153.642 90.0888 152.553 88.9274L134.816 70.0021Z" fill="#2F201D"/>
<path fill-rule="evenodd" clip-rule="evenodd" d="M412.867 544.885C411.711 543.729 411.711 541.856 412.867 540.7L431.713 521.867C432.869 520.711 434.744 520.711 435.901 521.867C437.057 523.022 437.057 524.896 435.901 526.052L422.11 539.833H547.584L533.794 526.052C532.637 524.896 532.637 523.022 533.794 521.867C534.95 520.711 536.825 520.711 537.981 521.867L556.827 540.7C557.983 541.856 557.983 543.729 556.827 544.885L537.981 563.718C536.825 564.874 534.95 564.874 533.794 563.718C532.637 562.563 532.637 560.689 533.794 559.533L547.584 545.752H422.11L435.901 559.533C437.057 560.689 437.057 562.563 435.901 563.718C434.744 564.874 432.869 564.874 431.713 563.718L412.867 544.885Z" fill="#2F201D"/>
<path fill-rule="evenodd" clip-rule="evenodd" d="M578.962 544.353C577.679 543.223 577.679 541.391 578.962 540.261L599.858 521.847C601.141 520.718 603.22 520.718 604.502 521.847C605.784 522.977 605.784 524.809 604.502 525.939L589.211 539.414H759.864L744.572 525.939C743.29 524.809 743.29 522.977 744.572 521.847C745.855 520.718 747.934 520.718 749.216 521.847L770.113 540.261C771.395 541.391 771.395 543.223 770.113 544.353L749.216 562.767C747.934 563.897 745.855 563.897 744.572 562.767C743.29 561.637 743.29 559.805 744.572 558.675L759.864 545.201H589.211L604.502 558.675C605.784 559.805 605.784 561.637 604.502 562.767C603.22 563.897 601.141 563.897 599.858 562.767L578.962 544.353Z" fill="#2F201D"/>
<path fill-rule="evenodd" clip-rule="evenodd" d="M425.864 70.0021C424.712 68.8407 424.712 66.9578 425.864 65.7964L444.644 46.871C445.797 45.7097 447.665 45.7097 448.818 46.871C449.97 48.0324 449.97 49.9153 448.818 51.0767L435.075 64.9254L754.878 64.9254L741.136 51.0767C739.983 49.9153 739.983 48.0324 741.136 46.871C742.288 45.7097 744.156 45.7097 745.309 46.871L764.089 65.7964C765.241 66.9578 765.241 68.8407 764.089 70.0021L745.309 88.9274C744.156 90.0888 742.288 90.0888 741.136 88.9274C739.983 87.7661 739.983 85.8832 741.136 84.7218L754.878 70.8731L435.075 70.8731L448.818 84.7218C449.97 85.8832 449.97 87.7661 448.818 88.9274C447.665 90.0888 445.797 90.0888 444.644 88.9274L425.864 70.0021Z" fill="#2F201D"/>
<path fill-rule="evenodd" clip-rule="evenodd" d="M151.274 118.506L124.406 134.008L123.222 131.958L150.089 116.456L151.274 118.506Z" fill="#2F201D"/>
<path fill-rule="evenodd" clip-rule="evenodd" d="M166.913 129.302L126.619 152.551L125.435 150.5L165.729 127.252L166.913 129.302Z" fill="#2F201D"/>
<path fill-rule="evenodd" clip-rule="evenodd" d="M483.302 191.445L405.205 236.505L404.021 234.455L482.118 189.394L483.302 191.445Z" fill="#2F201D"/>
<path fill-rule="evenodd" clip-rule="evenodd" d="M510.967 276.774L426.606 130.751L428.658 129.567L513.019 275.591L510.967 276.774Z" fill="#2F201D"/>
<path fill-rule="evenodd" clip-rule="evenodd" d="M471.367 179.863L404.041 218.708L402.857 216.658L470.182 177.813L471.367 179.863Z" fill="#2F201D"/>
<path fill-rule="evenodd" clip-rule="evenodd" d="M529.955 277.654L478.175 188.025L480.226 186.841L532.007 276.47L529.955 277.654Z" fill="#2F201D"/>
<path fill-rule="evenodd" clip-rule="evenodd" d="M461.694 166.976L403.664 200.458L402.48 198.408L460.509 164.926L461.694 166.976Z" fill="#2F201D"/>
<path fill-rule="evenodd" clip-rule="evenodd" d="M548.572 277.89L526.126 239.038L528.178 237.854L550.623 276.706L548.572 277.89Z" fill="#2F201D"/>
<path fill-rule="evenodd" clip-rule="evenodd" d="M449.474 155.558L404.482 181.518L403.298 179.467L448.29 153.508L449.474 155.558Z" fill="#2F201D"/>
<path fill-rule="evenodd" clip-rule="evenodd" d="M439.169 143.036L402.891 163.968L401.707 161.917L437.984 140.986L439.169 143.036Z" fill="#2F201D"/>
<path fill-rule="evenodd" clip-rule="evenodd" d="M428.745 130.583L404.323 144.673L403.138 142.623L427.56 128.532L428.745 130.583Z" fill="#2F201D"/>
<path fill-rule="evenodd" clip-rule="evenodd" d="M417.088 118.84L402.833 127.065L401.648 125.015L415.904 116.789L417.088 118.84Z" fill="#2F201D"/>
<path fill-rule="evenodd" clip-rule="evenodd" d="M183.272 139.683L126.3 172.554L125.115 170.504L182.087 137.633L183.272 139.683Z" fill="#2F201D"/>
<path fill-rule="evenodd" clip-rule="evenodd" d="M495.507 204.222L404.886 256.509L403.701 254.459L494.323 202.172L495.507 204.222Z" fill="#2F201D"/>
<path fill-rule="evenodd" clip-rule="evenodd" d="M492.465 279.077L402.243 122.908L404.294 121.724L494.517 277.894L492.465 279.077Z" fill="#2F201D"/>
<path fill-rule="evenodd" clip-rule="evenodd" d="M199.167 150.331L126.974 191.985L125.79 189.935L197.983 148.281L199.167 150.331Z" fill="#2F201D"/>
<path fill-rule="evenodd" clip-rule="evenodd" d="M507.433 217.161L405.56 275.939L404.376 273.889L506.249 215.111L507.433 217.161Z" fill="#2F201D"/>
<path fill-rule="evenodd" clip-rule="evenodd" d="M472.285 278.474L401.233 155.488L403.285 154.304L474.336 277.29L472.285 278.474Z" fill="#2F201D"/>
<path fill-rule="evenodd" clip-rule="evenodd" d="M217.371 159.647L127.562 211.466L126.377 209.415L216.187 157.597L217.371 159.647Z" fill="#2F201D"/>
<path fill-rule="evenodd" clip-rule="evenodd" d="M519.645 229.935L418.428 288.335L417.243 286.284L518.46 227.884L519.645 229.935Z" fill="#2F201D"/>
<path fill-rule="evenodd" clip-rule="evenodd" d="M452.993 279.41L403.586 193.89L405.638 192.706L455.044 278.226L452.993 279.41Z" fill="#2F201D"/>
<path fill-rule="evenodd" clip-rule="evenodd" d="M233.249 170.306L128.131 230.957L126.946 228.907L232.065 168.256L233.249 170.306Z" fill="#2F201D"/>
<path fill-rule="evenodd" clip-rule="evenodd" d="M530.407 243.544L434.64 298.8L433.455 296.75L529.223 241.494L530.407 243.544Z" fill="#2F201D"/>
<path fill-rule="evenodd" clip-rule="evenodd" d="M433.326 279.696L402.392 226.152L404.444 224.968L435.377 278.512L433.326 279.696Z" fill="#2F201D"/>
<path fill-rule="evenodd" clip-rule="evenodd" d="M249.996 180.463L126.598 251.661L125.413 249.611L248.812 178.412L249.996 180.463Z" fill="#2F201D"/>
<path fill-rule="evenodd" clip-rule="evenodd" d="M541.536 256.943L450.467 309.488L449.282 307.438L540.352 254.893L541.536 256.943Z" fill="#2F201D"/>
<path fill-rule="evenodd" clip-rule="evenodd" d="M412.993 278.83L401.041 258.142L403.093 256.958L415.044 277.646L412.993 278.83Z" fill="#2F201D"/>
<path fill-rule="evenodd" clip-rule="evenodd" d="M267.193 190.36L125.408 272.167L124.224 270.116L266.009 188.31L267.193 190.36Z" fill="#2F201D"/>
<path fill-rule="evenodd" clip-rule="evenodd" d="M553.716 269.735L468.073 319.149L466.889 317.099L552.532 267.685L553.716 269.735Z" fill="#2F201D"/>
<path fill-rule="evenodd" clip-rule="evenodd" d="M774.065 318.608L750.25 277.386L752.301 276.202L776.116 317.424L774.065 318.608Z" fill="#2F201D"/>
<path fill-rule="evenodd" clip-rule="evenodd" d="M281.656 201.835L149.231 278.241L148.046 276.191L280.471 199.785L281.656 201.835Z" fill="#2F201D"/>
<path fill-rule="evenodd" clip-rule="evenodd" d="M565.871 282.542L484.31 329.6L483.126 327.55L564.686 280.491L565.871 282.542Z" fill="#2F201D"/>
<path fill-rule="evenodd" clip-rule="evenodd" d="M773.346 351.692L731.092 278.554L733.144 277.37L775.397 350.508L773.346 351.692Z" fill="#2F201D"/>
<path fill-rule="evenodd" clip-rule="evenodd" d="M299.191 211.537L183.65 278.202L182.466 276.151L298.007 209.487L299.191 211.537Z" fill="#2F201D"/>
<path fill-rule="evenodd" clip-rule="evenodd" d="M608.533 277.746L500.891 339.853L499.706 337.803L607.348 275.696L608.533 277.746Z" fill="#2F201D"/>
<path fill-rule="evenodd" clip-rule="evenodd" d="M773.705 386.642L710.848 277.841L712.9 276.657L775.757 385.459L773.705 386.642Z" fill="#2F201D"/>
<path fill-rule="evenodd" clip-rule="evenodd" d="M315.355 221.697L217.568 278.118L216.383 276.068L314.17 219.647L315.355 221.697Z" fill="#2F201D"/>
<path fill-rule="evenodd" clip-rule="evenodd" d="M641.219 278.373L515.763 350.758L514.579 348.708L640.034 276.323L641.219 278.373Z" fill="#2F201D"/>
<path fill-rule="evenodd" clip-rule="evenodd" d="M773.601 420.213L691.457 278.027L693.509 276.844L775.653 419.03L773.601 420.213Z" fill="#2F201D"/>
<path fill-rule="evenodd" clip-rule="evenodd" d="M331.45 232.563L252.883 277.895L251.698 275.845L330.266 230.513L331.45 232.563Z" fill="#2F201D"/>
<path fill-rule="evenodd" clip-rule="evenodd" d="M675.063 278.998L531.469 361.85L530.284 359.799L673.879 276.948L675.063 278.998Z" fill="#2F201D"/>
<path fill-rule="evenodd" clip-rule="evenodd" d="M773.893 455.624L671.058 277.624L673.109 276.44L775.944 454.441L773.893 455.624Z" fill="#2F201D"/>
<path fill-rule="evenodd" clip-rule="evenodd" d="M347.447 243.153L287.49 277.747L286.305 275.697L346.262 241.103L347.447 243.153Z" fill="#2F201D"/>
<path fill-rule="evenodd" clip-rule="evenodd" d="M708.439 279.561L549.623 371.194L548.438 369.144L707.254 277.511L708.439 279.561Z" fill="#2F201D"/>
<path fill-rule="evenodd" clip-rule="evenodd" d="M771.298 485.461L651.312 277.773L653.364 276.59L773.35 484.277L771.298 485.461Z" fill="#2F201D"/>
<path fill-rule="evenodd" clip-rule="evenodd" d="M364.167 253.325L320.045 278.783L318.861 276.733L362.983 251.275L364.167 253.325Z" fill="#2F201D"/>
<path fill-rule="evenodd" clip-rule="evenodd" d="M743.252 279.294L566.664 381.182L565.479 379.132L742.067 277.244L743.252 279.294Z" fill="#2F201D"/>
<path fill-rule="evenodd" clip-rule="evenodd" d="M756.167 493.599L631.931 278.555L633.983 277.371L758.218 492.415L756.167 493.599Z" fill="#2F201D"/>
<path fill-rule="evenodd" clip-rule="evenodd" d="M381.373 263.218L351.731 280.321L350.546 278.27L380.188 261.168L381.373 263.218Z" fill="#2F201D"/>
<path fill-rule="evenodd" clip-rule="evenodd" d="M776.22 280.092L581.637 392.362L580.452 390.312L775.035 278.042L776.22 280.092Z" fill="#2F201D"/>
<path fill-rule="evenodd" clip-rule="evenodd" d="M700.398 431.396L612.004 278.391L614.056 277.208L702.45 430.212L700.398 431.396Z" fill="#2F201D"/>
<path fill-rule="evenodd" clip-rule="evenodd" d="M775.792 296.76L596.019 400.485L594.835 398.435L774.608 294.71L775.792 296.76Z" fill="#2F201D"/>
<path fill-rule="evenodd" clip-rule="evenodd" d="M655.845 382.72L595.228 277.795L597.279 276.611L657.897 381.536L655.845 382.72Z" fill="#2F201D"/>
<path fill-rule="evenodd" clip-rule="evenodd" d="M774.458 313.951L609.914 408.89L608.729 406.839L773.274 311.901L774.458 313.951Z" fill="#2F201D"/>
<path fill-rule="evenodd" clip-rule="evenodd" d="M614.017 338.76L579.074 278.277L581.126 277.093L616.068 337.576L614.017 338.76Z" fill="#2F201D"/>
<path fill-rule="evenodd" clip-rule="evenodd" d="M775.13 329.985L622.817 417.866L621.633 415.816L773.946 327.935L775.13 329.985Z" fill="#2F201D"/>
<path fill-rule="evenodd" clip-rule="evenodd" d="M774.346 346.859L636.21 426.56L635.026 424.51L773.161 344.809L774.346 346.859Z" fill="#2F201D"/>
<path fill-rule="evenodd" clip-rule="evenodd" d="M773.923 363.524L650.389 434.801L649.205 432.75L772.738 361.474L773.923 363.524Z" fill="#2F201D"/>
<path fill-rule="evenodd" clip-rule="evenodd" d="M774.902 379.381L663.814 443.476L662.63 441.426L773.717 377.331L774.902 379.381Z" fill="#2F201D"/>
<path fill-rule="evenodd" clip-rule="evenodd" d="M775.349 395.544L677.766 451.847L676.582 449.797L774.165 393.494L775.349 395.544Z" fill="#2F201D"/>
<path fill-rule="evenodd" clip-rule="evenodd" d="M776.172 411.491L691.62 460.276L690.435 458.225L774.988 409.44L776.172 411.491Z" fill="#2F201D"/>
<path fill-rule="evenodd" clip-rule="evenodd" d="M775.556 426.319L703.61 467.83L702.425 465.78L774.371 424.269L775.556 426.319Z" fill="#2F201D"/>
<path fill-rule="evenodd" clip-rule="evenodd" d="M775.653 440.735L715.268 475.576L714.084 473.526L774.469 438.685L775.653 440.735Z" fill="#2F201D"/>
<path fill-rule="evenodd" clip-rule="evenodd" d="M775.138 455.506L727.849 482.79L726.665 480.74L773.953 453.455L775.138 455.506Z" fill="#2F201D"/>
<path fill-rule="evenodd" clip-rule="evenodd" d="M823.309 281.047H6V275.128H823.309V281.047Z" fill="#2F201D"/>
<path fill-rule="evenodd" clip-rule="evenodd" d="M401.308 25.6336C402.464 24.4779 404.339 24.4779 405.496 25.6336L424.341 44.4668C425.497 45.6225 425.497 47.4963 424.341 48.652C423.184 49.8077 421.31 49.8077 420.153 48.652L406.363 34.8707L406.363 527.223L420.153 513.442C421.31 512.286 423.184 512.286 424.341 513.442C425.497 514.598 425.497 516.472 424.341 517.627L405.496 536.46C404.339 537.616 402.464 537.616 401.308 536.46L382.462 517.627C381.306 516.472 381.306 514.598 382.462 513.442C383.619 512.286 385.494 512.286 386.65 513.442L400.44 527.223L400.44 34.8707L386.65 48.652C385.494 49.8077 383.619 49.8077 382.462 48.652C381.306 47.4963 381.306 45.6225 382.462 44.4668L401.308 25.6336Z" fill="#2F201D"/>
<path fill-rule="evenodd" clip-rule="evenodd" d="M109.052 128.94L126.227 99.9344L143.403 128.94H129.202V275.128H123.252L123.252 128.94H109.052Z" fill="#3F518C"/>
<path fill-rule="evenodd" clip-rule="evenodd" d="M892.438 589.398L123.461 105.867L126.608 100.869L895.585 584.4L892.438 589.398Z" fill="#3F518C"/>
<path fill-rule="evenodd" clip-rule="evenodd" d="M401.334 105.853L852.855 602.906L857.268 598.894L404.014 99.9343L403.994 99.953V99.9344H125.635V105.853H401.334Z" fill="#3F518C"/>
<path fill-rule="evenodd" clip-rule="evenodd" d="M791.841 481.099L774.744 510.693L757.647 481.099L771.783 481.099L771.783 281.047L777.705 281.047L777.705 481.099L791.841 481.099Z" fill="#EC563B"/>
<path d="M105.272 210.576C104.408 210.576 103.672 210.192 103.064 209.424C102.488 208.656 102.2 207.504 102.2 205.968C102.2 205.264 102.296 204.432 102.488 203.472C102.68 202.48 102.904 201.68 103.16 201.072L106.232 193.92C106.392 193.568 106.552 193.104 106.712 192.528C106.904 191.952 107 191.472 107 191.088C107 190.64 106.904 190.272 106.712 189.984C106.552 189.696 106.296 189.552 105.944 189.552C104.024 189.552 101.992 191.36 99.848 194.976C98.568 197.152 97.416 199.312 96.392 201.456C95.4 203.6 94.696 205.392 94.28 206.832L93.32 210H90.152L98.888 178.032C98.952 177.776 98.984 177.616 98.984 177.552C98.984 177.168 98.696 176.976 98.12 176.976H93.896L94.232 175.824H102.728L96.392 198.816L96.584 198.96L97.256 197.76C98.664 195.04 100.088 192.752 101.528 190.896C103 189.04 104.616 188.112 106.376 188.112C107.336 188.112 108.088 188.512 108.632 189.312C109.208 190.08 109.496 191.216 109.496 192.72C109.496 193.424 109.4 194.288 109.208 195.312C109.016 196.304 108.792 197.072 108.536 197.616L105.464 204.768C105.304 205.12 105.128 205.584 104.936 206.16C104.776 206.736 104.696 207.216 104.696 207.6C104.696 208.048 104.792 208.416 104.984 208.704C105.176 208.992 105.448 209.136 105.8 209.136C106.888 209.136 107.928 208.304 108.92 206.64C109.912 204.976 110.76 203.184 111.464 201.264L112.424 201.552C111.56 204.144 110.504 206.304 109.256 208.032C108.04 209.728 106.712 210.576 105.272 210.576Z" fill="#2F201D"/>
<path d="M254.392 52.576C252.696 52.576 251.368 51.984 250.408 50.8C249.48 49.584 249.016 47.984 249.016 46C249.016 44.08 249.368 42.192 250.072 40.336C250.808 38.448 251.592 36.848 252.424 35.536C253.48 33.84 254.728 32.512 256.168 31.552C257.64 30.592 259.112 30.112 260.584 30.112C261.544 30.112 262.408 30.48 263.176 31.216C263.944 31.952 264.456 32.992 264.712 34.336L264.904 34.432L268.792 20.032L268.84 19.696C268.84 19.216 268.568 18.976 268.024 18.976H263.8L264.136 17.824H272.632L265.048 45.808C264.6 47.6 264.376 48.88 264.376 49.648C264.376 50.096 264.44 50.432 264.568 50.656C264.696 50.848 264.92 50.944 265.24 50.944C266.104 50.944 267 50.224 267.928 48.784C268.888 47.344 269.736 45.504 270.472 43.264L271.432 43.552C270.536 46.048 269.496 48.176 268.312 49.936C267.16 51.696 265.848 52.576 264.376 52.576C262.52 52.576 261.592 50.944 261.592 47.68C261.592 47.264 261.592 46.96 261.592 46.768C261.624 46.544 261.64 46.416 261.64 46.384L261.496 46.288C260.824 47.728 259.832 49.136 258.52 50.512C257.24 51.888 255.864 52.576 254.392 52.576ZM254.68 51.424C255.864 51.424 257 50.832 258.088 49.648C259.176 48.432 260.184 46.816 261.112 44.8C261.752 43.36 262.312 41.76 262.792 40C263.272 38.24 263.512 36.8 263.512 35.68C263.512 34.272 263.224 33.184 262.648 32.416C262.072 31.648 261.288 31.264 260.296 31.264C259.304 31.264 258.36 31.808 257.464 32.896C256.568 33.984 255.8 35.232 255.16 36.64C254.36 38.432 253.704 40.336 253.192 42.352C252.712 44.368 252.472 46.224 252.472 47.92C252.472 48.88 252.632 49.712 252.952 50.416C253.304 51.088 253.88 51.424 254.68 51.424Z" fill="#2F201D"/>
<path d="M583.808 53.424C582.72 53.424 581.84 53.056 581.168 52.32C580.496 51.584 580.16 50.8 580.16 49.968C580.16 49.104 580.4 48.384 580.88 47.808C581.36 47.264 581.936 46.992 582.608 46.992C583.12 46.992 583.52 47.136 583.808 47.424C584.064 47.712 584.192 48.096 584.192 48.576C584.192 48.896 584.128 49.184 584 49.44C583.84 49.728 583.648 49.952 583.424 50.112C582.912 50.368 582.656 50.72 582.656 51.168C582.656 51.488 582.784 51.744 583.04 51.936C583.264 52.16 583.584 52.272 584 52.272C585.152 52.272 586.24 51.712 587.264 50.592C588.32 49.504 589.296 47.312 590.192 44.016L596.336 21.456H591.44L591.728 20.112H596.72L596.912 19.488C597.68 17.024 598.48 15.024 599.312 13.488C600.176 11.92 601.264 10.672 602.576 9.744C603.92 8.784 605.408 8.304 607.04 8.304C608.128 8.304 609.008 8.672 609.68 9.408C610.352 10.144 610.688 10.928 610.688 11.76C610.688 12.624 610.448 13.344 609.968 13.92C609.488 14.464 608.912 14.736 608.24 14.736C607.728 14.736 607.328 14.592 607.04 14.304C606.784 14.016 606.656 13.632 606.656 13.152C606.656 12.832 606.72 12.544 606.848 12.288C607.008 12 607.2 11.776 607.424 11.616C607.936 11.36 608.192 11.008 608.192 10.56C608.192 10.24 608.064 9.984 607.808 9.792C607.584 9.568 607.264 9.456 606.848 9.456C605.696 9.456 604.608 10.016 603.584 11.136C602.56 12.224 601.584 14.416 600.656 17.712L599.984 20.112H605.36L605.072 21.456H599.6L593.936 42.24C593.296 44.512 592.496 46.512 591.536 48.24C590.672 49.808 589.568 51.056 588.224 51.984C586.912 52.944 585.44 53.424 583.808 53.424Z" fill="#2F201D"/>
<path d="M581.904 264.464H585.552C586.416 264.464 586.96 264.032 587.184 263.168L594.912 234.656C594.976 234.4 595.008 234.208 595.008 234.08C595.008 233.6 594.672 233.36 594 233.36H590.352L590.736 231.824H617.232L615.024 242.768H613.824C613.856 242.64 613.888 242.384 613.92 242C613.952 241.584 613.968 241.072 613.968 240.464C613.968 237.776 613.536 235.92 612.672 234.896C611.808 233.872 610.512 233.36 608.784 233.36H600.912C600.048 233.36 599.504 233.792 599.28 234.656L595.776 247.568H600.912C602.16 247.568 603.168 247.232 603.936 246.56C604.704 245.856 605.264 245.04 605.616 244.112C606 243.184 606.368 242.064 606.72 240.752H607.92L603.792 256.304H602.592C602.912 254.896 603.072 253.696 603.072 252.704C603.072 251.584 602.848 250.704 602.4 250.064C601.984 249.424 601.248 249.104 600.192 249.104H595.392L591.552 263.168C591.488 263.424 591.456 263.6 591.456 263.696C591.456 264.208 591.792 264.464 592.464 264.464H597.84L597.456 266H581.52L581.904 264.464Z" fill="#2F201D"/>
<path d="M808.272 404.576C807.408 404.576 806.672 404.192 806.064 403.424C805.488 402.656 805.2 401.504 805.2 399.968C805.2 399.264 805.296 398.432 805.488 397.472C805.68 396.48 805.904 395.68 806.16 395.072L809.232 387.92C809.392 387.568 809.552 387.104 809.712 386.528C809.904 385.952 810 385.472 810 385.088C810 384.64 809.904 384.272 809.712 383.984C809.552 383.696 809.296 383.552 808.944 383.552C807.024 383.552 804.992 385.36 802.848 388.976C801.568 391.152 800.416 393.312 799.392 395.456C798.4 397.6 797.696 399.392 797.28 400.832L796.32 404H793.152L801.888 372.032C801.952 371.776 801.984 371.616 801.984 371.552C801.984 371.168 801.696 370.976 801.12 370.976H796.896L797.232 369.824H805.728L799.392 392.816L799.584 392.96L800.256 391.76C801.664 389.04 803.088 386.752 804.528 384.896C806 383.04 807.616 382.112 809.376 382.112C810.336 382.112 811.088 382.512 811.632 383.312C812.208 384.08 812.496 385.216 812.496 386.72C812.496 387.424 812.4 388.288 812.208 389.312C812.016 390.304 811.792 391.072 811.536 391.616L808.464 398.768C808.304 399.12 808.128 399.584 807.936 400.16C807.776 400.736 807.696 401.216 807.696 401.6C807.696 402.048 807.792 402.416 807.984 402.704C808.176 402.992 808.448 403.136 808.8 403.136C809.888 403.136 810.928 402.304 811.92 400.64C812.912 398.976 813.76 397.184 814.464 395.264L815.424 395.552C814.56 398.144 813.504 400.304 812.256 402.032C811.04 403.728 809.712 404.576 808.272 404.576ZM821.123 389.408H823.763C824.051 389.408 824.275 389.36 824.435 389.264C824.595 389.136 824.707 388.944 824.771 388.688L828.611 375.152C827.747 375.664 826.563 376.064 825.059 376.352L824.915 375.344C826.099 375.12 827.331 374.624 828.611 373.856C829.891 373.088 830.963 372.064 831.827 370.784H832.883L827.843 388.688C827.811 388.752 827.795 388.848 827.795 388.976C827.795 389.264 828.019 389.408 828.467 389.408H831.107L830.771 390.56H820.787L821.123 389.408Z" fill="#2F201D"/>
<path d="M609.808 609.424C608.72 609.424 607.84 609.056 607.168 608.32C606.496 607.584 606.16 606.8 606.16 605.968C606.16 605.104 606.4 604.384 606.88 603.808C607.36 603.264 607.936 602.992 608.608 602.992C609.12 602.992 609.52 603.136 609.808 603.424C610.064 603.712 610.192 604.096 610.192 604.576C610.192 604.896 610.128 605.184 610 605.44C609.84 605.728 609.648 605.952 609.424 606.112C608.912 606.368 608.656 606.72 608.656 607.168C608.656 607.488 608.784 607.744 609.04 607.936C609.264 608.16 609.584 608.272 610 608.272C611.152 608.272 612.24 607.712 613.264 606.592C614.32 605.504 615.296 603.312 616.192 600.016L622.336 577.456H617.44L617.728 576.112H622.72L622.912 575.488C623.68 573.024 624.48 571.024 625.312 569.488C626.176 567.92 627.264 566.672 628.576 565.744C629.92 564.784 631.408 564.304 633.04 564.304C634.128 564.304 635.008 564.672 635.68 565.408C636.352 566.144 636.688 566.928 636.688 567.76C636.688 568.624 636.448 569.344 635.968 569.92C635.488 570.464 634.912 570.736 634.24 570.736C633.728 570.736 633.328 570.592 633.04 570.304C632.784 570.016 632.656 569.632 632.656 569.152C632.656 568.832 632.72 568.544 632.848 568.288C633.008 568 633.2 567.776 633.424 567.616C633.936 567.36 634.192 567.008 634.192 566.56C634.192 566.24 634.064 565.984 633.808 565.792C633.584 565.568 633.264 565.456 632.848 565.456C631.696 565.456 630.608 566.016 629.584 567.136C628.56 568.224 627.584 570.416 626.656 573.712L625.984 576.112H631.36L631.072 577.456H625.6L619.936 598.24C619.296 600.512 618.496 602.512 617.536 604.24C616.672 605.808 615.568 607.056 614.224 607.984C612.912 608.944 611.44 609.424 609.808 609.424ZM651.871 586.768V585.04H694.111V586.768H651.871ZM706.892 596.464H710.54C711.404 596.464 711.948 596.032 712.172 595.168L719.9 566.656C719.964 566.4 719.996 566.208 719.996 566.08C719.996 565.6 719.66 565.36 718.988 565.36H715.34L715.724 563.824H742.22L740.012 574.768H738.812C738.844 574.64 738.876 574.384 738.908 574C738.94 573.584 738.956 573.072 738.956 572.464C738.956 569.776 738.524 567.92 737.66 566.896C736.796 565.872 735.5 565.36 733.772 565.36H725.9C725.036 565.36 724.492 565.792 724.268 566.656L720.764 579.568H725.9C727.148 579.568 728.156 579.232 728.924 578.56C729.692 577.856 730.252 577.04 730.604 576.112C730.988 575.184 731.356 574.064 731.708 572.752H732.908L728.78 588.304H727.58C727.9 586.896 728.06 585.696 728.06 584.704C728.06 583.584 727.836 582.704 727.388 582.064C726.972 581.424 726.236 581.104 725.18 581.104H720.38L716.54 595.168C716.476 595.424 716.444 595.6 716.444 595.696C716.444 596.208 716.78 596.464 717.452 596.464H722.828L722.444 598H706.508L706.892 596.464Z" fill="#2F201D"/>
<path d="M470.904 595.993H474.552C475.416 595.993 475.96 595.561 476.184 594.697L483.912 566.185C483.976 565.929 484.008 565.737 484.008 565.609C484.008 565.129 483.672 564.889 483 564.889H479.352L479.736 563.353H506.232L504.024 574.297H502.824C502.856 574.169 502.888 573.913 502.92 573.529C502.952 573.113 502.968 572.601 502.968 571.993C502.968 569.305 502.536 567.449 501.672 566.425C500.808 565.401 499.512 564.889 497.784 564.889H489.912C489.048 564.889 488.504 565.321 488.28 566.185L484.776 579.097H489.912C491.16 579.097 492.168 578.761 492.936 578.089C493.704 577.385 494.264 576.569 494.616 575.641C495 574.713 495.368 573.593 495.72 572.281H496.92L492.792 587.833H491.592C491.912 586.425 492.072 585.225 492.072 584.233C492.072 583.113 491.848 582.233 491.4 581.593C490.984 580.953 490.248 580.633 489.192 580.633H484.392L480.552 594.697C480.488 594.953 480.456 595.129 480.456 595.225C480.456 595.737 480.792 595.993 481.464 595.993H486.84L486.456 597.529H470.52L470.904 595.993Z" fill="#2F201D"/>
<path d="M9.20549 668.171H7.64373L7.26514 669.686L4.05965 682.515L3.4388 685H6H139.028H140.59L140.968 683.485L144.174 670.656L144.795 668.171H142.233H97.3565C94.7492 668.171 93.16 667.664 92.2582 666.977C91.4591 666.367 90.9421 665.418 90.9421 663.756C90.9421 663.237 91.1419 662.003 91.6786 659.852C91.6804 659.845 91.6821 659.838 91.6838 659.831L123.326 543.879H161.867C170.29 543.879 175.65 546.412 178.621 550.987L178.64 551.015L178.66 551.044C182.083 555.936 183.908 562.832 183.908 571.947C183.908 580.033 182.603 589.898 179.951 601.573L179.396 604.016H181.901H191.919H193.457L193.852 602.528L228.311 472.633L228.977 470.12H226.378H216.36H214.826L214.429 471.602C211.505 482.504 208.459 491.771 205.296 499.42L205.285 499.447L205.274 499.475C202.455 506.913 197.97 513.465 191.786 519.141C185.818 524.357 177.913 527.05 167.877 527.05H127.619L156.184 421.728L156.187 421.717L156.19 421.706C157.047 418.397 158.462 416.117 160.306 414.652C162.144 413.191 164.61 412.379 167.877 412.379H233.59C247.608 412.379 257.788 416.519 264.517 424.498C271.24 432.47 274.864 447.333 274.864 469.715C274.864 474.759 274.731 478.978 274.47 482.383C274.201 485.611 273.943 487.587 273.722 488.474L273.101 490.958H275.662H285.679H287.316L287.64 489.354L306.071 397.946L306.554 395.55H304.111H82.9318H81.37L80.9915 397.065L77.786 409.895L77.1651 412.379H79.7263H110.178C112.805 412.379 114.416 412.86 115.326 413.51C116.113 414.072 116.593 414.914 116.593 416.393C116.593 417.202 116.38 418.601 115.856 420.7C115.854 420.707 115.853 420.713 115.851 420.719L51.3506 658.823L51.3477 658.834L51.3449 658.844C50.4877 662.153 49.0729 664.433 47.2286 665.899C45.3909 667.359 42.9247 668.171 39.6577 668.171H9.20549Z" fill="#EC563B" stroke="#2F201D" stroke-width="4"/>
<path d="M14.9606 662.416H13.3988L13.0202 663.931L9.81472 676.76L9.19386 679.245H11.7551H144.783H146.345L146.723 677.73L149.929 664.901L150.55 662.416H147.988H103.112C100.504 662.416 98.915 661.909 98.0133 661.222C97.2141 660.612 96.6972 659.663 96.6972 658.001C96.6972 657.482 96.8969 656.248 97.4337 654.097C97.4354 654.09 97.4372 654.083 97.4389 654.076L129.081 538.124H167.622C176.045 538.124 181.405 540.657 184.376 545.232L184.395 545.26L184.415 545.288C187.838 550.181 189.663 557.077 189.663 566.192C189.663 574.278 188.358 584.143 185.706 595.818L185.151 598.261H187.656H197.674H199.212L199.607 596.773L234.066 466.878L234.732 464.365H232.133H222.115H220.581L220.184 465.847C217.261 476.749 214.215 486.016 211.051 493.665L211.04 493.692L211.03 493.72C208.21 501.158 203.725 507.71 197.541 513.386C191.573 518.602 183.668 521.295 173.632 521.295H133.374L161.939 415.973L161.942 415.962L161.945 415.951C162.802 412.642 164.217 410.362 166.061 408.897C167.899 407.436 170.365 406.624 173.632 406.624H239.345C253.364 406.624 263.543 410.764 270.272 418.743C276.995 426.715 280.619 441.578 280.619 463.96C280.619 469.004 280.486 473.223 280.225 476.628C279.956 479.856 279.698 481.832 279.477 482.719L278.856 485.203H281.417H291.434H293.071L293.395 483.599L311.826 392.191L312.309 389.795H309.866H88.6869H87.1251L86.7465 391.31L83.541 404.14L82.9202 406.624H85.4814H115.934C118.561 406.624 120.171 407.105 121.081 407.755C121.868 408.317 122.348 409.159 122.348 410.638C122.348 411.447 122.135 412.846 121.611 414.945C121.609 414.952 121.608 414.958 121.606 414.964L57.1056 653.068L57.1028 653.079L57.1 653.089C56.2427 656.398 54.828 658.678 52.9836 660.144C51.146 661.604 48.6797 662.416 45.4127 662.416H14.9606Z" fill="#EC563B" stroke="#2F201D" stroke-width="4"/>
<path d="M20.7156 656.661H19.1538L18.7752 658.176L15.5697 671.005L14.9489 673.49H17.5101H150.538H152.1L152.478 671.975L155.684 659.146L156.305 656.661H153.743H108.867C106.259 656.661 104.67 656.154 103.768 655.467C102.969 654.857 102.452 653.908 102.452 652.246C102.452 651.727 102.652 650.493 103.189 648.342C103.19 648.335 103.192 648.328 103.194 648.321L134.836 532.369H173.377C181.8 532.369 187.16 534.902 190.132 539.477L190.15 539.505L190.17 539.533C193.593 544.426 195.418 551.322 195.418 560.437C195.418 568.523 194.113 578.388 191.461 590.063L190.906 592.506H193.411H203.429H204.967L205.362 591.018L239.821 461.123L240.487 458.61H237.888H227.87H226.336L225.939 460.092C223.016 470.994 219.97 480.261 216.806 487.91L216.795 487.937L216.785 487.965C213.965 495.403 209.48 501.955 203.296 507.631C197.328 512.847 189.423 515.54 179.387 515.54H139.129L167.694 410.218L167.697 410.207L167.7 410.196C168.557 406.887 169.972 404.607 171.816 403.142C173.654 401.681 176.12 400.869 179.387 400.869H245.1C259.119 400.869 269.298 405.009 276.027 412.988C282.75 420.96 286.374 435.823 286.374 458.205C286.374 463.249 286.241 467.468 285.98 470.873C285.711 474.101 285.453 476.077 285.232 476.964L284.611 479.448H287.172H297.189H298.826L299.15 477.844L317.581 386.436L318.064 384.04H315.621H94.4419H92.8801L92.5015 385.555L89.296 398.385L88.6752 400.869H91.2364H121.689C124.316 400.869 125.926 401.35 126.836 402C127.623 402.562 128.103 403.404 128.103 404.883C128.103 405.692 127.89 407.091 127.366 409.19C127.364 409.197 127.363 409.203 127.361 409.209L62.8606 647.313L62.8578 647.324L62.855 647.334C61.9977 650.643 60.583 652.923 58.7386 654.389C56.901 655.849 54.4347 656.661 51.1677 656.661H20.7156Z" fill="#EC563B" stroke="#2F201D" stroke-width="4"/>
<path d="M26.4706 650.906H24.9088L24.5302 652.421L21.3248 665.25L20.7039 667.735H23.2651H156.293H157.855L158.233 666.22L161.439 653.391L162.06 650.906H159.498H114.622C112.014 650.906 110.425 650.399 109.523 649.712C108.724 649.102 108.207 648.153 108.207 646.491C108.207 645.972 108.407 644.738 108.944 642.587C108.945 642.58 108.947 642.573 108.949 642.566L140.591 526.614H179.132C187.555 526.614 192.915 529.147 195.887 533.722L195.905 533.75L195.925 533.778C199.348 538.671 201.173 545.567 201.173 554.682C201.173 562.768 199.868 572.633 197.216 584.308L196.661 586.751H199.166H209.184H210.722L211.117 585.263L245.576 455.368L246.242 452.855H243.643H233.626H232.091L231.694 454.337C228.771 465.239 225.725 474.506 222.562 482.155L222.55 482.182L222.54 482.21C219.72 489.648 215.235 496.2 209.051 501.876C203.083 507.092 195.178 509.785 185.142 509.785H144.884L173.449 404.463L173.452 404.452L173.455 404.441C174.312 401.132 175.727 398.852 177.572 397.387C179.409 395.926 181.875 395.114 185.142 395.114H250.855C264.874 395.114 275.053 399.254 281.782 407.233C288.505 415.205 292.129 430.068 292.129 452.45C292.129 457.494 291.996 461.713 291.735 465.118C291.466 468.346 291.208 470.322 290.987 471.208L290.366 473.693H292.927H302.944H304.581L304.905 472.089L323.336 380.681L323.819 378.285H321.376H100.197H98.6351L98.2566 379.8L95.0511 392.63L94.4302 395.114H96.9914H127.444C130.071 395.114 131.682 395.595 132.591 396.245C133.378 396.807 133.858 397.649 133.858 399.128C133.858 399.937 133.645 401.336 133.121 403.435C133.119 403.442 133.118 403.448 133.116 403.454L68.6157 641.558L68.6128 641.569L68.61 641.579C67.7528 644.888 66.338 647.168 64.4937 648.634C62.656 650.094 60.1898 650.906 56.9228 650.906H26.4706Z" fill="#EC563B" stroke="#2F201D" stroke-width="4"/>
<path d="M32.2256 645.151H30.6639L30.2853 646.666L27.0798 659.495L26.4589 661.98H29.0201H162.048H163.61L163.988 660.465L167.194 647.636L167.815 645.151H165.254H120.377C117.769 645.151 116.18 644.644 115.278 643.957C114.479 643.347 113.962 642.398 113.962 640.736C113.962 640.217 114.162 638.983 114.699 636.832C114.701 636.825 114.702 636.818 114.704 636.811L146.346 520.859H184.887C193.31 520.859 198.67 523.392 201.642 527.967L201.66 527.995L201.68 528.023C205.103 532.916 206.928 539.812 206.928 548.927C206.928 557.013 205.623 566.878 202.971 578.553L202.416 580.996H204.922H214.939H216.477L216.872 579.508L251.331 449.613L251.997 447.1H249.398H239.381H237.846L237.449 448.582C234.526 459.484 231.48 468.751 228.317 476.4L228.305 476.427L228.295 476.455C225.475 483.893 220.99 490.445 214.806 496.121C208.838 501.337 200.933 504.03 190.897 504.03H150.639L179.204 398.708L179.207 398.697L179.21 398.686C180.067 395.377 181.482 393.097 183.327 391.632C185.164 390.171 187.63 389.359 190.897 389.359H256.61C270.629 389.359 280.809 393.499 287.537 401.478C294.26 409.45 297.884 424.313 297.884 446.695C297.884 451.739 297.751 455.958 297.49 459.363C297.221 462.591 296.963 464.567 296.742 465.453L296.121 467.938H298.682H308.699H310.336L310.66 466.334L329.091 374.926L329.574 372.53H327.131H105.952H104.39L104.012 374.045L100.806 386.875L100.185 389.359H102.746H133.199C135.826 389.359 137.437 389.84 138.347 390.49C139.133 391.052 139.613 391.894 139.613 393.373C139.613 394.182 139.4 395.581 138.876 397.68C138.875 397.687 138.873 397.693 138.871 397.699L74.3707 635.803L74.3678 635.814L74.3651 635.824C73.5078 639.133 72.093 641.413 70.2487 642.879C68.4111 644.339 65.9448 645.151 62.6778 645.151H32.2256Z" fill="#EC563B" stroke="#2F201D" stroke-width="4"/>
<path d="M37.9807 639.396H36.4189L36.0403 640.911L32.8348 653.74L32.214 656.225H34.7752H167.803H169.365L169.743 654.71L172.949 641.88L173.57 639.396H171.009H126.132C123.524 639.396 121.935 638.889 121.033 638.201C120.234 637.592 119.717 636.643 119.717 634.981C119.717 634.462 119.917 633.228 120.454 631.077C120.456 631.07 120.457 631.063 120.459 631.056L152.101 515.104H190.642C199.065 515.104 204.425 517.637 207.397 522.211L207.415 522.24L207.435 522.268C210.858 527.161 212.683 534.057 212.683 543.172C212.683 551.258 211.378 561.123 208.726 572.797L208.171 575.24H210.677H220.694H222.232L222.627 573.753L257.086 443.858L257.752 441.345H255.153H245.136H243.601L243.204 442.827C240.281 453.728 237.235 462.996 234.072 470.644L234.06 470.672L234.05 470.7C231.23 478.137 226.745 484.69 220.561 490.366C214.593 495.582 206.688 498.274 196.653 498.274H156.394L184.959 392.952L184.962 392.942L184.965 392.931C185.822 389.622 187.237 387.342 189.082 385.876C190.919 384.416 193.386 383.604 196.653 383.604H262.365C276.384 383.604 286.564 387.744 293.292 395.723C300.015 403.695 303.639 418.558 303.639 440.939C303.639 445.983 303.506 450.203 303.245 453.608C302.976 456.836 302.718 458.812 302.497 459.698L301.876 462.183H304.437H314.454H316.091L316.415 460.578L334.846 369.17L335.329 366.775H332.886H111.707H110.145L109.767 368.29L106.561 381.12L105.94 383.604H108.501H138.954C141.581 383.604 143.192 384.085 144.102 384.735C144.888 385.297 145.368 386.139 145.368 387.618C145.368 388.427 145.155 389.826 144.631 391.925C144.63 391.931 144.628 391.938 144.626 391.944L80.1258 630.048L80.1229 630.059L80.1201 630.069C79.2629 633.378 77.8481 635.658 76.0037 637.124C74.1661 638.584 71.6998 639.396 68.4328 639.396H37.9807Z" fill="#EC563B" stroke="#2F201D" stroke-width="4"/>
<path d="M43.7357 633.641H42.1739L41.7954 635.156L38.5899 647.985L37.969 650.47H40.5302H173.558H175.12L175.498 648.955L178.704 636.125L179.325 633.641H176.764H131.887C129.279 633.641 127.69 633.134 126.788 632.446C125.989 631.837 125.472 630.888 125.472 629.226C125.472 628.707 125.672 627.473 126.209 625.322C126.211 625.315 126.212 625.308 126.214 625.301L157.856 509.349H196.397C204.82 509.349 210.18 511.882 213.152 516.456L213.17 516.485L213.19 516.513C216.613 521.406 218.438 528.302 218.438 537.417C218.438 545.503 217.133 555.368 214.481 567.042L213.926 569.485H216.432H226.449H227.987L228.382 567.998L262.841 438.103L263.508 435.59H260.908H250.891H249.356L248.959 437.072C246.036 447.973 242.99 457.241 239.827 464.889L239.815 464.917L239.805 464.945C236.985 472.382 232.5 478.935 226.316 484.611C220.348 489.827 212.444 492.519 202.408 492.519H162.149L190.714 387.197L190.717 387.187L190.72 387.176C191.578 383.867 192.992 381.587 194.837 380.121C196.674 378.661 199.141 377.849 202.408 377.849H268.12C282.139 377.849 292.319 381.989 299.047 389.968C305.77 397.94 309.394 412.803 309.394 435.184C309.394 440.228 309.262 444.448 309 447.853C308.731 451.081 308.473 453.057 308.252 453.943L307.631 456.428H310.192H320.209H321.846L322.17 454.823L340.601 363.415L341.084 361.02H338.641H117.462H115.9L115.522 362.535L112.316 375.365L111.695 377.849H114.257H144.709C147.336 377.849 148.947 378.33 149.857 378.98C150.643 379.542 151.123 380.384 151.123 381.863C151.123 382.672 150.91 384.071 150.386 386.17C150.385 386.176 150.383 386.183 150.381 386.189L85.8808 624.293L85.8779 624.304L85.8752 624.314C85.0179 627.623 83.6031 629.903 81.7588 631.369C79.9211 632.829 77.4549 633.641 74.1879 633.641H43.7357Z" fill="#EC563B" stroke="#2F201D" stroke-width="4"/>
<path d="M49.4907 627.886H47.9289L47.5504 629.401L44.3449 642.23L43.724 644.715H46.2852H179.313H180.875L181.253 643.2L184.459 630.37L185.08 627.886H182.519H137.642C135.034 627.886 133.445 627.379 132.543 626.691C131.744 626.082 131.227 625.133 131.227 623.471C131.227 622.952 131.427 621.718 131.964 619.567C131.966 619.56 131.967 619.553 131.969 619.546L163.611 503.594H202.152C210.575 503.594 215.935 506.127 218.907 510.701L218.925 510.73L218.945 510.758C222.368 515.651 224.193 522.547 224.193 531.662C224.193 539.748 222.888 549.613 220.236 561.287L219.681 563.73H222.187H232.204H233.742L234.137 562.243L268.596 432.348L269.263 429.835H266.663H256.646H255.111L254.714 431.317C251.791 442.218 248.745 451.486 245.582 459.134L245.57 459.162L245.56 459.19C242.74 466.627 238.255 473.18 232.071 478.856C226.103 484.072 218.199 486.764 208.163 486.764H167.904L196.469 381.442L196.472 381.432L196.475 381.421C197.333 378.112 198.747 375.832 200.592 374.366C202.429 372.906 204.896 372.094 208.163 372.094H273.875C287.894 372.094 298.074 376.234 304.802 384.213C311.525 392.185 315.149 407.048 315.149 429.429C315.149 434.473 315.017 438.693 314.755 442.098C314.486 445.326 314.228 447.302 314.007 448.188L313.386 450.673H315.947H325.964H327.601L327.925 449.068L346.356 357.66L346.839 355.265H344.396H123.217H121.655L121.277 356.78L118.071 369.61L117.45 372.094H120.012H150.464C153.091 372.094 154.702 372.575 155.612 373.225C156.398 373.787 156.878 374.629 156.878 376.108C156.878 376.917 156.665 378.316 156.141 380.415C156.14 380.421 156.138 380.428 156.136 380.434L91.6358 618.538L91.6329 618.549L91.6302 618.559C90.7729 621.868 89.3581 624.148 87.5138 625.614C85.6762 627.074 83.2099 627.886 79.9429 627.886H49.4907Z" fill="#EC563B" stroke="#2F201D" stroke-width="4"/>
<path d="M55.2457 622.131H53.684L53.3054 623.646L50.0999 636.475L49.479 638.96H52.0403H185.068H186.63L187.009 637.445L190.214 624.615L190.835 622.131H188.274H143.397C140.789 622.131 139.2 621.624 138.298 620.936C137.499 620.327 136.982 619.378 136.982 617.716C136.982 617.197 137.182 615.963 137.719 613.812C137.721 613.805 137.722 613.798 137.724 613.791L169.366 497.839H207.907C216.33 497.839 221.69 500.372 224.662 504.946L224.68 504.975L224.7 505.003C228.123 509.896 229.948 516.792 229.948 525.907C229.948 533.993 228.643 543.858 225.991 555.532L225.436 557.975H227.942H237.959H239.497L239.892 556.488L274.351 426.593L275.018 424.08H272.418H262.401H260.866L260.469 425.562C257.546 436.463 254.5 445.731 251.337 453.379L251.325 453.407L251.315 453.435C248.495 460.872 244.01 467.425 237.826 473.101C231.858 478.317 223.954 481.009 213.918 481.009H173.659L202.225 375.687L202.227 375.677L202.23 375.666C203.088 372.357 204.502 370.077 206.347 368.611C208.184 367.151 210.651 366.339 213.918 366.339H279.63C293.649 366.339 303.829 370.479 310.557 378.458C317.28 386.43 320.904 401.293 320.904 423.674C320.904 428.718 320.772 432.938 320.51 436.343C320.241 439.571 319.983 441.547 319.762 442.433L319.141 444.918H321.702H331.719H333.356L333.68 443.313L352.112 351.905L352.595 349.51H350.151H128.972H127.41L127.032 351.025L123.826 363.855L123.205 366.339H125.767H156.219C158.846 366.339 160.457 366.82 161.367 367.47C162.153 368.032 162.633 368.874 162.633 370.353C162.633 371.162 162.42 372.561 161.896 374.66C161.895 374.666 161.893 374.673 161.891 374.679L97.3908 612.783L97.388 612.794L97.3852 612.804C96.5279 616.113 95.1132 618.393 93.2688 619.859C91.4312 621.319 88.9649 622.131 85.6979 622.131H55.2457Z" fill="#EC563B" stroke="#2F201D" stroke-width="4"/>
<path d="M61.0008 616.375H59.439L59.0604 617.891L55.8549 630.72L55.2341 633.205H57.7953H190.823H192.385L192.764 631.689L195.969 618.86L196.59 616.375H194.029H149.152C146.544 616.375 144.955 615.869 144.054 615.181C143.254 614.572 142.737 613.623 142.737 611.961C142.737 611.442 142.937 610.207 143.474 608.056C143.476 608.049 143.477 608.043 143.479 608.036L175.121 492.083H213.662C222.085 492.083 227.445 494.617 230.417 499.191L230.435 499.22L230.455 499.248C233.878 504.141 235.704 511.037 235.704 520.152C235.704 528.238 234.398 538.103 231.746 549.777L231.191 552.22H233.697H243.714H245.252L245.647 550.733L280.106 420.838L280.773 418.325H278.173H268.156H266.621L266.224 419.807C263.301 430.708 260.255 439.976 257.092 447.624L257.08 447.652L257.07 447.68C254.25 455.117 249.765 461.669 243.581 467.346C237.613 472.562 229.709 475.254 219.673 475.254H179.414L207.98 369.932L207.982 369.921L207.985 369.91C208.843 366.602 210.257 364.322 212.102 362.856C213.939 361.396 216.406 360.584 219.673 360.584H285.385C299.404 360.584 309.584 364.724 316.312 372.703C323.035 380.675 326.659 395.538 326.659 417.919C326.659 422.963 326.527 427.182 326.265 430.587C325.996 433.816 325.738 435.792 325.517 436.678L324.896 439.163H327.457H337.474H339.111L339.435 437.558L357.867 346.15L358.35 343.755H355.906H134.727H133.165L132.787 345.27L129.581 358.099L128.96 360.584H131.522H161.974C164.601 360.584 166.212 361.064 167.122 361.715C167.908 362.277 168.388 363.119 168.388 364.598C168.388 365.406 168.175 366.806 167.651 368.905C167.65 368.911 167.648 368.918 167.646 368.924L103.146 607.028L103.143 607.039L103.14 607.049C102.283 610.358 100.868 612.638 99.0239 614.103C97.1862 615.564 94.7199 616.375 91.4529 616.375H61.0008Z" fill="#EC563B" stroke="#2F201D" stroke-width="4"/>
<path d="M66.7558 610.62H65.1941L64.8155 612.136L61.61 624.965L60.9892 627.45H63.5504H196.578H198.14L198.519 625.934L201.724 613.105L202.345 610.62H199.784H154.907C152.3 610.62 150.71 610.114 149.809 609.426C149.009 608.817 148.492 607.868 148.492 606.206C148.492 605.687 148.692 604.452 149.229 602.301C149.231 602.294 149.232 602.288 149.234 602.281L180.876 486.328H219.417C227.84 486.328 233.2 488.862 236.172 493.436L236.19 493.465L236.21 493.493C239.633 498.386 241.459 505.282 241.459 514.397C241.459 522.483 240.153 532.348 237.501 544.022L236.946 546.465H239.452H249.469H251.007L251.402 544.978L285.861 415.083L286.528 412.57H283.928H273.911H272.376L271.979 414.052C269.056 424.953 266.01 434.221 262.847 441.869L262.835 441.897L262.825 441.925C260.005 449.362 255.52 455.914 249.336 461.591C243.368 466.807 235.464 469.499 225.428 469.499H185.169L213.735 364.177L213.738 364.166L213.74 364.155C214.598 360.847 216.012 358.567 217.857 357.101C219.694 355.641 222.161 354.829 225.428 354.829H291.14C305.159 354.829 315.339 358.969 322.067 366.948C328.79 374.92 332.414 389.783 332.414 412.164C332.414 417.208 332.282 421.427 332.02 424.832C331.751 428.061 331.493 430.037 331.272 430.923L330.651 433.408H333.212H343.229H344.866L345.19 431.803L363.622 340.395L364.105 338H361.661H140.482H138.92L138.542 339.515L135.336 352.344L134.715 354.829H137.277H167.729C170.356 354.829 171.967 355.309 172.877 355.96C173.663 356.522 174.143 357.364 174.143 358.843C174.143 359.651 173.93 361.051 173.406 363.15C173.405 363.156 173.403 363.163 173.402 363.169L108.901 601.273L108.898 601.284L108.895 601.294C108.038 604.603 106.623 606.883 104.779 608.348C102.941 609.809 100.475 610.62 97.208 610.62H66.7558Z" fill="#EC563B" stroke="#2F201D" stroke-width="4"/>
</svg>
