<svg width="907" height="364" viewBox="0 0 907 364" fill="none" xmlns="http://www.w3.org/2000/svg">
<rect width="907" height="364" fill="#EC563B"/>
<circle cx="712.825" cy="176.691" r="26.5432" fill="#FFD118"/>
<circle cx="761.664" cy="241.457" r="26.5432" fill="#FFD118"/>
<circle cx="842.355" cy="192.617" r="26.5432" fill="#FFD118"/>
<circle cx="772.281" cy="122.543" r="26.5432" fill="#FFD118"/>
<path fill-rule="evenodd" clip-rule="evenodd" d="M770.165 118.852L846.701 193.136L758.821 244.963L709.312 177.451L770.165 118.852ZM716.338 178.055L760.261 237.951L838.01 192.099L770.151 126.235L716.338 178.055Z" fill="#2F201D"/>
<circle cx="772.281" cy="122.543" r="10.6173" fill="#2F201D"/>
<circle cx="842.355" cy="192.617" r="10.6173" fill="#2F201D"/>
<circle cx="761.664" cy="241.457" r="10.6173" fill="#2F201D"/>
<circle cx="712.825" cy="176.691" r="10.6173" fill="#2F201D"/>
<path d="M474.584 182.225L369.473 220.978L369.473 143.472L474.584 182.225Z" fill="#FFD118"/>
<path d="M482.016 182.225L587.127 143.472L587.127 220.978L482.016 182.225Z" fill="#FFD118"/>
<path fill-rule="evenodd" clip-rule="evenodd" d="M616.855 184.879H340.806V179.571H616.855V184.879Z" fill="#2F201D"/>
<path d="M89.0247 165.433L95.9259 153.223H233.951L236.605 159.593L241.914 168.618V191.711L238.198 204.186L231.827 214.803H97.5185L89.0247 201.001L86.9012 184.013L89.0247 165.433Z" fill="#FFD118"/>
<mask id="mask0_475_336" style="mask-type:alpha" maskUnits="userSpaceOnUse" x="84" y="153" width="161" height="62">
<rect x="84.7778" y="153.223" width="159.259" height="61.5802" fill="#FFD118"/>
</mask>
<g mask="url(#mask0_475_336)">
<path d="M98.5896 216.927C94.4085 212.924 91.0495 207.994 88.5126 202.136C86.0227 196.229 84.7778 189.834 84.7778 182.951C84.7778 176.068 86.0227 169.698 88.5126 163.84C91.0495 157.934 94.4085 152.979 98.5896 148.976L100.704 150.733C96.5226 155.273 93.3984 160.204 91.3314 165.524C89.3113 170.845 88.3012 176.654 88.3012 182.951C88.3012 189.249 89.3113 195.058 91.3314 200.378C93.3984 205.699 96.5226 210.63 100.704 215.169L98.5896 216.927Z" fill="#2F201D"/>
<path d="M231.146 148.976C235.048 152.979 238.183 157.91 240.551 163.767C242.875 169.674 244.037 176.069 244.037 182.952C244.037 189.835 242.875 196.205 240.551 202.063C238.183 207.969 235.048 212.924 231.146 216.927L229.173 215.17C233.075 210.63 235.991 205.7 237.92 200.379C239.806 195.058 240.748 189.249 240.748 182.952C240.748 176.655 239.806 170.846 237.92 165.525C235.991 160.204 233.075 155.274 229.173 150.734L231.146 148.976Z" fill="#2F201D"/>
</g>
<path fill-rule="evenodd" clip-rule="evenodd" d="M265.272 168.157L291.815 183.482L265.272 198.807V186.137H37V180.828H265.272V168.157Z" fill="#2F201D"/>
<rect x="160.16" y="176.581" width="8.49383" height="14.8642" fill="#2F201D"/>
<path d="M162.514 168.634C160.466 168.634 158.658 168.138 157.09 167.146C155.522 166.154 154.29 164.682 153.394 162.73C152.498 160.746 152.05 158.298 152.05 155.386C152.05 151.034 152.994 147.706 154.882 145.402C156.802 143.098 159.41 141.946 162.706 141.946C163.922 141.946 165.026 142.122 166.018 142.474C167.01 142.794 167.89 143.258 168.658 143.866C169.458 144.442 170.13 145.13 170.674 145.93H170.866L171.49 142.426H174.85V162.49C174.85 163.482 175.042 164.186 175.426 164.602C175.81 164.986 176.274 165.178 176.818 165.178C177.074 165.178 177.346 165.146 177.634 165.082C177.922 165.018 178.13 164.97 178.258 164.938V168.01C178.098 168.106 177.874 168.202 177.586 168.298C177.298 168.394 176.978 168.474 176.626 168.538C176.274 168.602 175.922 168.634 175.57 168.634C174.386 168.634 173.394 168.346 172.594 167.77C171.826 167.194 171.266 166.17 170.914 164.698H170.578C170.066 165.466 169.426 166.154 168.658 166.762C167.89 167.338 166.994 167.802 165.97 168.154C164.946 168.474 163.794 168.634 162.514 168.634ZM163.378 165.13C165.138 165.13 166.546 164.794 167.602 164.122C168.69 163.45 169.474 162.41 169.954 161.002C170.434 159.594 170.674 157.802 170.674 155.626V155.338C170.674 152.138 170.13 149.69 169.042 147.994C167.986 146.298 166.082 145.45 163.33 145.45C160.994 145.45 159.25 146.314 158.098 148.042C156.978 149.738 156.418 152.202 156.418 155.434C156.418 158.634 157.01 161.05 158.194 162.682C159.378 164.314 161.106 165.13 163.378 165.13Z" fill="#2F201D"/>
</svg>
